<?xml version="1.0" encoding="UTF-8" standalone="no"?>
<!DOCTYPE svg PUBLIC "-//W3C//DTD SVG 1.1//EN"
 "http://www.w3.org/Graphics/SVG/1.1/DTD/svg11.dtd">
<!-- Generated by graphviz version 2.43.0 (0)
 -->
<!-- Title: conceptual_data_model Pages: 1 -->
<svg width="367pt" height="173pt"
 viewBox="7.20 7.20 359.68 166.30" xmlns="http://www.w3.org/2000/svg" xmlns:xlink="http://www.w3.org/1999/xlink">
<g id="graph0" class="graph" transform="scale(1 1) rotate(0) translate(11.2 162.3)">
<title>conceptual_data_model</title>
<!-- phenomenon -->
<g id="node1" class="node">
<title>phenomenon</title>
<ellipse fill="#b48ead" stroke="black" cx="149.43" cy="-136.25" rx="61.54" ry="14.7"/>
<text text-anchor="middle" x="149.43" y="-133.15" font-family="Arial" font-size="12.00" fill="white">phenomenon</text>
</g>
<!-- property_set -->
<g id="node2" class="node">
<title>property_set</title>
<ellipse fill="#bf616a" stroke="black" cx="149.43" cy="-75.55" rx="56.64" ry="14.7"/>
<text text-anchor="middle" x="149.43" y="-72.45" font-family="Arial" font-size="12.00" fill="white">property&#45;set</text>
</g>
<!-- phenomenon&#45;&gt;property_set -->
<g id="edge1" class="edge">
<title>phenomenon&#45;&gt;property_set</title>
<path fill="none" stroke="black" d="M149.43,-121.34C149.43,-114.13 149.43,-105.19 149.43,-97.2"/>
<polygon fill="black" stroke="black" points="149.43,-90.77 152.13,-96.77 149.43,-93.77 149.43,-96.77 149.43,-96.77 149.43,-96.77 149.43,-93.77 146.73,-96.77 149.43,-90.77 149.43,-90.77"/>
<text text-anchor="middle" x="152.43" y="-102.2" font-family="Arial" font-size="14.00">*</text>
</g>
<!-- property -->
<g id="node3" class="node">
<title>property</title>
<ellipse fill="#a3be8c" stroke="black" cx="42.43" cy="-14.85" rx="42.35" ry="14.7"/>
<text text-anchor="middle" x="42.43" y="-11.75" font-family="Arial" font-size="12.00" fill="white">property</text>
</g>
<!-- property_set&#45;&gt;property -->
<g id="edge4" class="edge">
<title>property_set&#45;&gt;property</title>
<path fill="none" stroke="black" d="M126.47,-61.96C109.78,-52.8 87.11,-40.36 69.53,-30.72"/>
<polygon fill="black" stroke="black" points="64.25,-27.82 70.81,-28.34 66.88,-29.26 69.51,-30.71 69.51,-30.71 69.51,-30.71 66.88,-29.26 68.21,-33.07 64.25,-27.82 64.25,-27.82"/>
<text text-anchor="middle" x="112.43" y="-41.5" font-family="Arial" font-size="14.00">*</text>
</g>
<!-- time_domain -->
<g id="node4" class="node">
<title>time_domain</title>
<ellipse fill="#5e81ac" stroke="black" cx="149.43" cy="-14.85" rx="57.97" ry="14.7"/>
<text text-anchor="middle" x="149.43" y="-11.75" font-family="Arial" font-size="12.00" fill="white">time domain</text>
</g>
<!-- property_set&#45;&gt;time_domain -->
<g id="edge2" class="edge">
<title>property_set&#45;&gt;time_domain</title>
<path fill="none" stroke="black" d="M149.43,-60.64C149.43,-53.43 149.43,-44.49 149.43,-36.5"/>
<polygon fill="black" stroke="black" points="149.43,-30.07 152.13,-36.07 149.43,-33.07 149.43,-36.07 149.43,-36.07 149.43,-36.07 149.43,-33.07 146.73,-36.07 149.43,-30.07 149.43,-30.07"/>
<text text-anchor="middle" x="153.43" y="-41.5" font-family="Arial" font-size="14.00">?</text>
</g>
<!-- space_domain -->
<g id="node5" class="node">
<title>space_domain</title>
<ellipse fill="#5e81ac" stroke="black" cx="279.43" cy="-14.85" rx="65.11" ry="14.7"/>
<text text-anchor="middle" x="279.43" y="-11.75" font-family="Arial" font-size="12.00" fill="white">space domain</text>
</g>
<!-- property_set&#45;&gt;space_domain -->
<g id="edge3" class="edge">
<title>property_set&#45;&gt;space_domain</title>
<path fill="none" stroke="black" d="M176.36,-62.39C196.57,-53.26 224.36,-40.71 245.99,-30.95"/>
<polygon fill="black" stroke="black" points="251.63,-28.4 247.27,-33.33 248.89,-29.64 246.16,-30.87 246.16,-30.87 246.16,-30.87 248.89,-29.64 245.05,-28.41 251.63,-28.4 251.63,-28.4"/>
<text text-anchor="middle" x="234.43" y="-41.5" font-family="Arial" font-size="14.00">?</text>
</g>
</g>
</svg>
