<?xml version="1.0" encoding="UTF-8" standalone="no"?>
<!DOCTYPE svg PUBLIC "-//W3C//DTD SVG 1.1//EN"
 "http://www.w3.org/Graphics/SVG/1.1/DTD/svg11.dtd">
<!-- Generated by graphviz version 2.43.0 (0)
 -->
<!-- Title: physical_data_model Pages: 1 -->
<svg width="772pt" height="715pt"
 viewBox="7.20 7.20 764.34 708.20" xmlns="http://www.w3.org/2000/svg" xmlns:xlink="http://www.w3.org/1999/xlink">
<g id="graph0" class="graph" transform="scale(1 1) rotate(0) translate(11.2 704.2)">
<title>physical_data_model</title>
<!-- dataset -->
<g id="node1" class="node">
<title>dataset</title>
<ellipse fill="#88c0d0" stroke="black" cx="435.49" cy="-675" rx="39.79" ry="18"/>
<text text-anchor="middle" x="435.49" y="-671.3" font-family="Arial" font-size="14.00" fill="white">dataset</text>
</g>
<!-- universes -->
<g id="node2" class="node">
<title>universes</title>
<ellipse fill="#d08770" stroke="black" cx="406.49" cy="-602" rx="48.19" ry="18"/>
<text text-anchor="middle" x="406.49" y="-598.3" font-family="Arial" font-size="14.00" fill="white">universes</text>
</g>
<!-- dataset&#45;&gt;universes -->
<g id="edge1" class="edge">
<title>dataset&#45;&gt;universes</title>
<path fill="none" stroke="black" d="M428.62,-657.17C425.28,-648.98 421.17,-638.94 417.41,-629.73"/>
<polygon fill="black" stroke="black" points="420.54,-628.13 413.52,-620.2 414.06,-630.78 420.54,-628.13"/>
<text text-anchor="middle" x="428.49" y="-634.8" font-family="Arial" font-size="14.00">1</text>
</g>
<!-- phenomena -->
<g id="node4" class="node">
<title>phenomena</title>
<ellipse fill="#b48ead" stroke="black" cx="437.49" cy="-456" rx="57.69" ry="18"/>
<text text-anchor="middle" x="437.49" y="-452.3" font-family="Arial" font-size="14.00" fill="white">phenomena</text>
</g>
<!-- dataset&#45;&gt;phenomena -->
<g id="edge4" class="edge">
<title>dataset&#45;&gt;phenomena</title>
<path fill="none" stroke="black" d="M444.4,-657.02C449.33,-646.64 454.96,-632.91 457.49,-620 466.81,-572.46 466.04,-558.68 457.49,-511 455.85,-501.81 452.74,-492.13 449.45,-483.55"/>
<polygon fill="black" stroke="black" points="452.61,-482.01 445.59,-474.07 446.12,-484.65 452.61,-482.01"/>
<text text-anchor="middle" x="468.49" y="-561.8" font-family="Arial" font-size="14.00">1</text>
</g>
<!-- universe -->
<g id="node3" class="node">
<title>universe</title>
<ellipse fill="#d08770" stroke="black" cx="409.49" cy="-529" rx="44.39" ry="18"/>
<text text-anchor="middle" x="409.49" y="-525.3" font-family="Arial" font-size="14.00" fill="white">universe</text>
</g>
<!-- universes&#45;&gt;universe -->
<g id="edge2" class="edge">
<title>universes&#45;&gt;universe</title>
<path fill="none" stroke="black" d="M407.22,-583.81C407.56,-575.79 407.97,-566.05 408.35,-557.07"/>
<polygon fill="black" stroke="black" points="411.85,-557.17 408.77,-547.03 404.85,-556.87 411.85,-557.17"/>
<text text-anchor="middle" x="411.49" y="-561.8" font-family="Arial" font-size="14.00">*</text>
</g>
<!-- universe&#45;&gt;phenomena -->
<g id="edge3" class="edge">
<title>universe&#45;&gt;phenomena</title>
<path fill="none" stroke="black" d="M416.13,-511.17C419.36,-502.98 423.32,-492.94 426.95,-483.73"/>
<polygon fill="black" stroke="black" points="430.3,-484.79 430.71,-474.2 423.79,-482.22 430.3,-484.79"/>
<text text-anchor="middle" x="430.49" y="-488.8" font-family="Arial" font-size="14.00">1</text>
</g>
<!-- phenomenon -->
<g id="node5" class="node">
<title>phenomenon</title>
<ellipse fill="#b48ead" stroke="black" cx="437.49" cy="-383" rx="62.29" ry="18"/>
<text text-anchor="middle" x="437.49" y="-379.3" font-family="Arial" font-size="14.00" fill="white">phenomenon</text>
</g>
<!-- phenomena&#45;&gt;phenomenon -->
<g id="edge5" class="edge">
<title>phenomena&#45;&gt;phenomenon</title>
<path fill="none" stroke="black" d="M437.49,-437.81C437.49,-429.79 437.49,-420.05 437.49,-411.07"/>
<polygon fill="black" stroke="black" points="440.99,-411.03 437.49,-401.03 433.99,-411.03 440.99,-411.03"/>
<text text-anchor="middle" x="440.49" y="-415.8" font-family="Arial" font-size="14.00">*</text>
</g>
<!-- object_id -->
<g id="node6" class="node">
<title>object_id</title>
<ellipse fill="#434c5e" stroke="black" cx="285.49" cy="-310" rx="44.39" ry="18"/>
<text text-anchor="middle" x="285.49" y="-306.3" font-family="Arial" font-size="14.00" fill="white">object&#45;id</text>
</g>
<!-- phenomenon&#45;&gt;object_id -->
<g id="edge9" class="edge">
<title>phenomenon&#45;&gt;object_id</title>
<path fill="none" stroke="black" d="M406,-367.29C381.79,-355.98 348.27,-340.32 322.73,-328.39"/>
<polygon fill="black" stroke="black" points="323.91,-325.08 313.37,-324.02 320.95,-331.42 323.91,-325.08"/>
<text text-anchor="middle" x="379.49" y="-342.8" font-family="Arial" font-size="14.00">1</text>
</g>
<!-- collection_property_sets -->
<g id="node7" class="node">
<title>collection_property_sets</title>
<ellipse fill="#bf616a" stroke="black" cx="437.49" cy="-310" rx="100.98" ry="18"/>
<text text-anchor="middle" x="437.49" y="-306.3" font-family="Arial" font-size="14.00" fill="white">collection property&#45;sets</text>
</g>
<!-- phenomenon&#45;&gt;collection_property_sets -->
<g id="edge6" class="edge">
<title>phenomenon&#45;&gt;collection_property_sets</title>
<path fill="none" stroke="black" d="M437.49,-364.81C437.49,-356.79 437.49,-347.05 437.49,-338.07"/>
<polygon fill="black" stroke="black" points="440.99,-338.03 437.49,-328.03 433.99,-338.03 440.99,-338.03"/>
<text text-anchor="middle" x="441.49" y="-342.8" font-family="Arial" font-size="14.00">1</text>
</g>
<!-- property_sets -->
<g id="node8" class="node">
<title>property_sets</title>
<ellipse fill="#bf616a" stroke="black" cx="606.49" cy="-310" rx="61.99" ry="18"/>
<text text-anchor="middle" x="606.49" y="-306.3" font-family="Arial" font-size="14.00" fill="white">property&#45;sets</text>
</g>
<!-- phenomenon&#45;&gt;property_sets -->
<g id="edge8" class="edge">
<title>phenomenon&#45;&gt;property_sets</title>
<path fill="none" stroke="black" d="M471.29,-367.8C497.77,-356.68 534.79,-341.12 563.41,-329.1"/>
<polygon fill="black" stroke="black" points="564.89,-332.27 572.76,-325.17 562.18,-325.82 564.89,-332.27"/>
<text text-anchor="middle" x="540.49" y="-342.8" font-family="Arial" font-size="14.00">1</text>
</g>
<!-- property_set -->
<g id="node9" class="node">
<title>property_set</title>
<ellipse fill="#bf616a" stroke="black" cx="521.49" cy="-237" rx="57.69" ry="18"/>
<text text-anchor="middle" x="521.49" y="-233.3" font-family="Arial" font-size="14.00" fill="white">property&#45;set</text>
</g>
<!-- collection_property_sets&#45;&gt;property_set -->
<g id="edge7" class="edge">
<title>collection_property_sets&#45;&gt;property_set</title>
<path fill="none" stroke="black" d="M457.4,-292.17C468.44,-282.84 482.32,-271.11 494.34,-260.95"/>
<polygon fill="black" stroke="black" points="496.93,-263.34 502.31,-254.22 492.41,-258 496.93,-263.34"/>
<text text-anchor="middle" x="489.49" y="-269.8" font-family="Arial" font-size="14.00">*</text>
</g>
<!-- property_sets&#45;&gt;property_set -->
<g id="edge10" class="edge">
<title>property_sets&#45;&gt;property_set</title>
<path fill="none" stroke="black" d="M587.21,-292.89C575.79,-283.36 561.16,-271.14 548.6,-260.65"/>
<polygon fill="black" stroke="black" points="550.62,-257.77 540.71,-254.05 546.14,-263.14 550.62,-257.77"/>
<text text-anchor="middle" x="574.49" y="-269.8" font-family="Arial" font-size="14.00">*</text>
</g>
<!-- object_tracker -->
<g id="node10" class="node">
<title>object_tracker</title>
<ellipse fill="#434c5e" stroke="black" cx="260.49" cy="-164" rx="63.89" ry="18"/>
<text text-anchor="middle" x="260.49" y="-160.3" font-family="Arial" font-size="14.00" fill="white">object tracker</text>
</g>
<!-- property_set&#45;&gt;object_tracker -->
<g id="edge11" class="edge">
<title>property_set&#45;&gt;object_tracker</title>
<path fill="none" stroke="black" d="M479.56,-224.59C434.8,-212.42 363.73,-193.08 314.74,-179.76"/>
<polygon fill="black" stroke="black" points="315.51,-176.34 304.94,-177.09 313.67,-183.09 315.51,-176.34"/>
<text text-anchor="middle" x="418.49" y="-196.8" font-family="Arial" font-size="14.00">1</text>
</g>
<!-- properties -->
<g id="node14" class="node">
<title>properties</title>
<ellipse fill="#a3be8c" stroke="black" cx="434.49" cy="-164" rx="50.09" ry="18"/>
<text text-anchor="middle" x="434.49" y="-160.3" font-family="Arial" font-size="14.00" fill="white">properties</text>
</g>
<!-- property_set&#45;&gt;properties -->
<g id="edge17" class="edge">
<title>property_set&#45;&gt;properties</title>
<path fill="none" stroke="black" d="M501.75,-219.89C489.99,-210.29 474.89,-197.96 461.97,-187.42"/>
<polygon fill="black" stroke="black" points="463.82,-184.41 453.86,-180.8 459.39,-189.84 463.82,-184.41"/>
<text text-anchor="middle" x="489.49" y="-196.8" font-family="Arial" font-size="14.00">1</text>
</g>
<!-- time_domain -->
<g id="node16" class="node">
<title>time_domain</title>
<ellipse fill="#5e81ac" stroke="black" cx="551.49" cy="-164" rx="59.59" ry="18"/>
<text text-anchor="middle" x="551.49" y="-160.3" font-family="Arial" font-size="14.00" fill="white">time domain</text>
</g>
<!-- property_set&#45;&gt;time_domain -->
<g id="edge15" class="edge">
<title>property_set&#45;&gt;time_domain</title>
<path fill="none" stroke="black" d="M528.76,-218.81C532.22,-210.62 536.44,-200.62 540.3,-191.48"/>
<polygon fill="black" stroke="black" points="543.63,-192.6 544.3,-182.03 537.18,-189.88 543.63,-192.6"/>
<text text-anchor="middle" x="542.49" y="-196.8" font-family="Arial" font-size="14.00">1</text>
</g>
<!-- space_domain -->
<g id="node17" class="node">
<title>space_domain</title>
<ellipse fill="#5e81ac" stroke="black" cx="683.49" cy="-164" rx="65.79" ry="18"/>
<text text-anchor="middle" x="683.49" y="-160.3" font-family="Arial" font-size="14.00" fill="white">space domain</text>
</g>
<!-- property_set&#45;&gt;space_domain -->
<g id="edge16" class="edge">
<title>property_set&#45;&gt;space_domain</title>
<path fill="none" stroke="black" d="M553.5,-221.97C578.49,-211.02 613.45,-195.7 640.83,-183.7"/>
<polygon fill="black" stroke="black" points="642.41,-186.83 650.16,-179.61 639.6,-180.42 642.41,-186.83"/>
<text text-anchor="middle" x="620.49" y="-196.8" font-family="Arial" font-size="14.00">1</text>
</g>
<!-- active_set_index -->
<g id="node11" class="node">
<title>active_set_index</title>
<ellipse fill="#434c5e" stroke="black" cx="71.49" cy="-91" rx="71.49" ry="18"/>
<text text-anchor="middle" x="71.49" y="-87.3" font-family="Arial" font-size="14.00" fill="white">active set index</text>
</g>
<!-- object_tracker&#45;&gt;active_set_index -->
<g id="edge12" class="edge">
<title>object_tracker&#45;&gt;active_set_index</title>
<path fill="none" stroke="black" d="M223.6,-149.14C193.81,-137.95 151.67,-122.12 119.3,-109.96"/>
<polygon fill="black" stroke="black" points="120.18,-106.55 109.59,-106.31 117.72,-113.1 120.18,-106.55"/>
<text text-anchor="middle" x="187.49" y="-123.8" font-family="Arial" font-size="14.00">1</text>
</g>
<!-- active_object_index -->
<g id="node12" class="node">
<title>active_object_index</title>
<ellipse fill="#434c5e" stroke="black" cx="233.49" cy="-91" rx="83.39" ry="18"/>
<text text-anchor="middle" x="233.49" y="-87.3" font-family="Arial" font-size="14.00" fill="white">active object index</text>
</g>
<!-- object_tracker&#45;&gt;active_object_index -->
<g id="edge13" class="edge">
<title>object_tracker&#45;&gt;active_object_index</title>
<path fill="none" stroke="black" d="M253.96,-145.81C250.84,-137.62 247.04,-127.62 243.57,-118.48"/>
<polygon fill="black" stroke="black" points="246.8,-117.13 239.97,-109.03 240.25,-119.62 246.8,-117.13"/>
<text text-anchor="middle" x="253.49" y="-123.8" font-family="Arial" font-size="14.00">1</text>
</g>
<!-- active_object_id -->
<g id="node13" class="node">
<title>active_object_id</title>
<ellipse fill="#434c5e" stroke="black" cx="392.49" cy="-91" rx="68.79" ry="18"/>
<text text-anchor="middle" x="392.49" y="-87.3" font-family="Arial" font-size="14.00" fill="white">active object id</text>
</g>
<!-- object_tracker&#45;&gt;active_object_id -->
<g id="edge14" class="edge">
<title>object_tracker&#45;&gt;active_object_id</title>
<path fill="none" stroke="black" d="M288.81,-147.77C308.08,-137.4 333.79,-123.57 354.79,-112.28"/>
<polygon fill="black" stroke="black" points="356.62,-115.27 363.77,-107.45 353.3,-109.11 356.62,-115.27"/>
<text text-anchor="middle" x="342.49" y="-123.8" font-family="Arial" font-size="14.00">1</text>
</g>
<!-- property -->
<g id="node15" class="node">
<title>property</title>
<ellipse fill="#a3be8c" stroke="black" cx="511.49" cy="-91" rx="42.79" ry="18"/>
<text text-anchor="middle" x="511.49" y="-87.3" font-family="Arial" font-size="14.00" fill="white">property</text>
</g>
<!-- properties&#45;&gt;property -->
<g id="edge18" class="edge">
<title>properties&#45;&gt;property</title>
<path fill="none" stroke="black" d="M451.97,-146.89C462.35,-137.32 475.68,-125.03 487.09,-114.51"/>
<polygon fill="black" stroke="black" points="489.64,-116.91 494.62,-107.56 484.9,-111.77 489.64,-116.91"/>
<text text-anchor="middle" x="482.49" y="-123.8" font-family="Arial" font-size="14.00">*</text>
</g>
<!-- value -->
<g id="node18" class="node">
<title>value</title>
<ellipse fill="#ebcb8b" stroke="black" cx="511.49" cy="-18" rx="31.7" ry="18"/>
<text text-anchor="middle" x="511.49" y="-14.3" font-family="Arial" font-size="14.00" fill="white">value</text>
</g>
<!-- property&#45;&gt;value -->
<g id="edge19" class="edge">
<title>property&#45;&gt;value</title>
<path fill="none" stroke="black" d="M511.49,-72.81C511.49,-64.79 511.49,-55.05 511.49,-46.07"/>
<polygon fill="black" stroke="black" points="514.99,-46.03 511.49,-36.03 507.99,-46.03 514.99,-46.03"/>
<text text-anchor="middle" x="515.49" y="-50.8" font-family="Arial" font-size="14.00">1</text>
</g>
</g>
</svg>
